<svg width="110" height="110" viewBox="0 0 110 110" fill="none" xmlns="http://www.w3.org/2000/svg">
<path d="M18.1606 75.4583C18.1606 79.1051 19.6092 82.6024 22.1878 85.181C24.7665 87.7597 28.2638 89.2083 31.9106 89.2083C31.9106 92.2473 33.1178 95.1617 35.2666 97.3106C37.4155 99.4594 40.33 100.667 43.3689 100.667C46.4078 100.667 49.3223 99.4594 51.4712 97.3106C53.62 95.1617 54.8272 92.2473 54.8272 89.2083C54.8272 92.2473 56.0344 95.1617 58.1833 97.3106C60.3322 99.4594 63.2466 100.667 66.2856 100.667C69.3245 100.667 72.239 99.4594 74.3878 97.3106C76.5367 95.1617 77.7439 92.2473 77.7439 89.2083C80.1816 89.2085 82.5754 88.5607 84.6803 87.3312C86.7852 86.1017 88.5254 84.3347 89.7225 82.2113C90.9197 80.0879 91.5309 77.6843 91.4934 75.247C91.456 72.8096 90.7712 70.426 89.5093 68.3404C92.6464 67.7342 95.4746 66.0548 97.5084 63.5905C99.5421 61.1262 100.654 58.0308 100.654 54.8356C100.654 51.6405 99.5421 48.545 97.5084 46.0807C95.4746 43.6164 92.6464 41.937 89.5093 41.3308C90.7724 39.2451 91.4581 36.861 91.4962 34.423C91.5342 31.985 90.9233 29.5806 89.726 27.4565C88.5286 25.3324 86.788 23.5648 84.6824 22.3351C82.5769 21.1054 80.1822 20.4576 77.7439 20.4583C77.7439 17.4194 76.5367 14.5049 74.3878 12.3561C72.239 10.2072 69.3245 9 66.2856 9C63.2466 9 60.3322 10.2072 58.1833 12.3561C56.0344 14.5049 54.8272 17.4194 54.8272 20.4583C54.8272 17.4194 53.62 14.5049 51.4712 12.3561C49.3223 10.2072 46.4078 9 43.3689 9C40.33 9 37.4155 10.2072 35.2666 12.3561C33.1178 14.5049 31.9106 17.4194 31.9106 20.4583C29.4729 20.4581 27.079 21.106 24.9742 22.3355C22.8693 23.565 21.1291 25.332 19.9319 27.4554C18.7347 29.5788 18.1236 31.9823 18.161 34.4197C18.1985 36.857 18.8833 39.2406 20.1451 41.3262C17.008 41.9324 14.1798 43.6118 12.1461 46.0761C10.1124 48.5404 9 51.6359 9 54.831C9 58.0262 10.1124 61.1216 12.1461 63.5859C14.1798 66.0503 17.008 67.7297 20.1451 68.3358C18.8457 70.4843 18.1594 72.9475 18.1606 75.4583Z" stroke="#10B981" stroke-width="5.40984" stroke-linecap="round" stroke-linejoin="round"/>
<path d="M34.2021 66.2917L42.6446 40.9642C42.8566 40.3321 43.2617 39.7826 43.8029 39.3933C44.344 39.004 44.9938 38.7945 45.6605 38.7945C46.3271 38.7945 46.9769 39.004 47.5181 39.3933C48.0592 39.7826 48.4644 40.3321 48.6763 40.9642L57.1188 66.2917M70.8688 38.7917V66.2917M38.7855 57.125H52.5355" stroke="#10B981" stroke-width="5.40984" stroke-linecap="round" stroke-linejoin="round"/>
</svg>
