<svg width="99" height="74" viewBox="0 0 99 74" fill="none" xmlns="http://www.w3.org/2000/svg">
<path d="M89.25 13.7969H81.5156V9.5C81.5156 6.99288 80.5197 4.58844 78.7469 2.81563C76.9741 1.04283 74.5696 0.046875 72.0625 0.046875H10.1875C7.68038 0.046875 5.27594 1.04283 3.50313 2.81563C1.73033 4.58844 0.734375 6.99288 0.734375 9.5V50.75C0.734375 53.2571 1.73033 55.6616 3.50313 57.4344C5.27594 59.2072 7.68038 60.2031 10.1875 60.2031H59.1719V64.5C59.1719 67.0071 60.1678 69.4116 61.9406 71.1844C63.7134 72.9572 66.1179 73.9531 68.625 73.9531H89.25C91.7571 73.9531 94.1616 72.9572 95.9344 71.1844C97.7072 69.4116 98.7031 67.0071 98.7031 64.5V23.25C98.7031 20.7429 97.7072 18.3384 95.9344 16.5656C94.1616 14.7928 91.7571 13.7969 89.25 13.7969ZM10.1875 55.0469C9.0479 55.0469 7.95497 54.5942 7.14915 53.7884C6.34333 52.9825 5.89062 51.8896 5.89062 50.75V9.5C5.89062 8.3604 6.34333 7.26747 7.14915 6.46165C7.95497 5.65583 9.0479 5.20312 10.1875 5.20312H72.0625C73.2021 5.20312 74.295 5.65583 75.1009 6.46165C75.9067 7.26747 76.3594 8.3604 76.3594 9.5V13.7969H68.625C66.1179 13.7969 63.7134 14.7928 61.9406 16.5656C60.1678 18.3384 59.1719 20.7429 59.1719 23.25V55.0469H10.1875ZM93.5469 64.5C93.5469 65.6396 93.0942 66.7325 92.2884 67.5384C91.4825 68.3442 90.3896 68.7969 89.25 68.7969H68.625C67.4854 68.7969 66.3925 68.3442 65.5866 67.5384C64.7808 66.7325 64.3281 65.6396 64.3281 64.5V23.25C64.3281 22.1104 64.7808 21.0175 65.5866 20.2117C66.3925 19.4058 67.4854 18.9531 68.625 18.9531H89.25C90.3896 18.9531 91.4825 19.4058 92.2884 20.2117C93.0942 21.0175 93.5469 22.1104 93.5469 23.25V64.5ZM50.5781 71.375C50.5781 72.0588 50.3065 72.7145 49.823 73.198C49.3395 73.6815 48.6838 73.9531 48 73.9531H30.8125C30.1287 73.9531 29.473 73.6815 28.9895 73.198C28.506 72.7145 28.2344 72.0588 28.2344 71.375C28.2344 70.6912 28.506 70.0355 28.9895 69.552C29.473 69.0685 30.1287 68.7969 30.8125 68.7969H48C48.6838 68.7969 49.3395 69.0685 49.823 69.552C50.3065 70.0355 50.5781 70.6912 50.5781 71.375ZM84.9531 30.125C84.9531 30.8088 84.6815 31.4645 84.198 31.948C83.7145 32.4315 83.0588 32.7031 82.375 32.7031H75.5C74.8162 32.7031 74.1605 32.4315 73.677 31.948C73.1935 31.4645 72.9219 30.8088 72.9219 30.125C72.9219 29.4412 73.1935 28.7855 73.677 28.302C74.1605 27.8185 74.8162 27.5469 75.5 27.5469H82.375C83.0588 27.5469 83.7145 27.8185 84.198 28.302C84.6815 28.7855 84.9531 29.4412 84.9531 30.125Z" fill="#10B981"/>
</svg>
