<svg width="88" height="85" viewBox="0 0 88 85" fill="none" xmlns="http://www.w3.org/2000/svg">
<path d="M87.3626 80.3604C80.5692 68.6214 69.9044 60.3843 57.5122 56.8909C63.537 53.8283 68.3548 48.8258 71.1887 42.6901C74.0227 36.5544 74.7075 29.643 73.1329 23.0704C71.5583 16.4979 67.8159 10.6471 62.5093 6.46169C57.2027 2.27624 50.6411 0 43.8825 0C37.1239 0 30.5623 2.27624 25.2557 6.46169C19.9491 10.6471 16.2067 16.4979 14.6321 23.0704C13.0575 29.643 13.7423 36.5544 16.5762 42.6901C19.4101 48.8258 24.228 53.8283 30.2528 56.8909C17.8606 60.38 7.19576 68.6171 0.402404 80.3604C0.215867 80.6539 0.0906144 80.982 0.0341816 81.3251C-0.0222512 81.6682 -0.00869738 82.0192 0.0740264 82.3569C0.15675 82.6946 0.306934 83.0121 0.515545 83.2903C0.724156 83.5685 0.986882 83.8016 1.28792 83.9756C1.58895 84.1496 1.92208 84.2609 2.26725 84.3028C2.61242 84.3448 2.9625 84.3165 3.29644 84.2196C3.63038 84.1227 3.94128 83.9593 4.21042 83.7391C4.47956 83.519 4.70139 83.2467 4.86256 82.9386C13.1169 68.6772 27.7005 60.1651 43.8825 60.1651C60.0645 60.1651 74.6481 68.6772 82.9024 82.9386C83.0636 83.2467 83.2854 83.519 83.5546 83.7391C83.8237 83.9593 84.1346 84.1227 84.4685 84.2196C84.8025 84.3165 85.1526 84.3448 85.4977 84.3028C85.8429 84.2609 86.176 84.1496 86.4771 83.9756C86.7781 83.8016 87.0408 83.5685 87.2494 83.2903C87.458 83.0121 87.6082 82.6946 87.6909 82.3569C87.7737 82.0192 87.7872 81.6682 87.7308 81.3251C87.6744 80.982 87.5491 80.6539 87.3626 80.3604ZM18.9606 30.087C18.9606 25.1579 20.4223 20.3395 23.1607 16.2411C25.8992 12.1428 29.7914 8.94847 34.3453 7.06219C38.8992 5.17591 43.9101 4.68237 48.7445 5.64399C53.5789 6.60561 58.0195 8.97919 61.5049 12.4646C64.9903 15.95 67.3639 20.3906 68.3255 25.225C69.2871 30.0594 68.7936 35.0703 66.9073 39.6242C65.021 44.1781 61.8267 48.0703 57.7283 50.8088C53.63 53.5472 48.8116 55.0089 43.8825 55.0089C37.2752 55.0009 30.9409 52.3727 26.2689 47.7006C21.5968 43.0286 18.9686 36.6942 18.9606 30.087Z" fill="#10B981"/>
</svg>
